Coordinates
version=1
nRows=27
nColumns=38
inDegrees=no

Units are S.I. units (second, meters, Newtons, ...)
If the header above contains a line with 'inDegrees', this indicates whether rotational values are in degrees (yes) or radians (no).

endheader
time	pelvis_tilt	pelvis_list	pelvis_rotation	pelvis_tx	pelvis_ty	pelvis_tz	hip_flexion_r	hip_adduction_r	hip_rotation_r	knee_angle_r	ankle_angle_r	subtalar_angle_r	mtp_angle_r	hip_flexion_l	hip_adduction_l	hip_rotation_l	knee_angle_l	ankle_angle_l	subtalar_angle_l	mtp_angle_l	lumbar_extension	lumbar_bending	lumbar_rotation	arm_flex_r	arm_add_r	arm_rot_r	elbow_flex_r	pro_sup_r	wrist_flex_r	wrist_dev_r	arm_flex_l	arm_add_l	arm_rot_l	elbow_flex_l	pro_sup_l	wrist_flex_l	wrist_dev_l
1.75	-2.77984	1.22471	1.29814	0.722606	-0.188023	1.00522	0.659263	0.0729103	-0.138039	0.24622	-0.210214	0	0	0.129183	-0.202026	-0.0726196	0.723486	-0.356118	0	0	0.269492	0.136432	-0.116641	-0.0855274	-0.215805	0.405683	0.349296	1.5708	0	0	-0.0785829	-0.280797	0.274147	0.830283	1.48497	0	0
1.76	-2.76166	1.22329	1.28218	0.721002	-0.201538	1.00593	0.651099	0.080618	-0.141685	0.259759	-0.189889	0	0	0.154864	-0.210759	-0.0528662	0.779717	-0.390639	0	0	0.267432	0.141982	-0.117884	-0.0848172	-0.219231	0.392867	0.365067	1.5708	0	0	-0.0849481	-0.274422	0.267561	0.819898	1.48008	0	0
1.77	-2.74615	1.22122	1.26969	0.719545	-0.214995	1.00654	0.641385	0.0874043	-0.145958	0.2689	-0.17106	0	0	0.182571	-0.217851	-0.0333251	0.833658	-0.426189	0	0	0.267006	0.14567	-0.118673	-0.0852959	-0.222206	0.377762	0.38163	1.5708	0	0	-0.0919461	-0.267678	0.259246	0.809927	1.47769	0	0
1.78	-2.73063	1.22056	1.25923	0.718311	-0.22821	1.00735	0.628527	0.0929321	-0.151109	0.274663	-0.15585	0	0	0.210109	-0.223139	-0.0121164	0.884397	-0.45388	0	0	0.265075	0.147615	-0.119902	-0.0846004	-0.224387	0.362824	0.396707	1.5708	0	0	-0.0979309	-0.260572	0.249804	0.799643	1.47524	0	0
1.79	-2.71712	1.22035	1.25244	0.717281	-0.241301	1.00845	0.614207	0.0971063	-0.157101	0.277824	-0.14088	0	0	0.237682	-0.225979	0.010508	0.9313	-0.466981	0	0	0.263193	0.147919	-0.120908	-0.0838523	-0.225612	0.344819	0.410584	1.5708	0	0	-0.102563	-0.25283	0.239968	0.787845	1.4724	0	0
1.8	-2.70707	1.22055	1.2495	0.716337	-0.254365	1.00991	0.599062	0.100223	-0.162384	0.278925	-0.127594	0	0	0.264059	-0.226097	0.0328287	0.973391	-0.457897	0	0	0.261782	0.146637	-0.121087	-0.0827952	-0.225619	0.324243	0.422321	1.5708	0	0	-0.105965	-0.245758	0.232314	0.773987	1.47108	0	0
1.81	-2.70072	1.22195	1.24856	0.715354	-0.267258	1.01174	0.583142	0.10287	-0.166004	0.27897	-0.115377	0	0	0.288175	-0.223949	0.0513108	1.01121	-0.427356	0	0	0.259052	0.144255	-0.118145	-0.0815586	-0.225218	0.300798	0.433944	1.5708	0	0	-0.107575	-0.239198	0.226552	0.758294	1.47328	0	0
1.82	-2.7	1.2249	1.24956	0.714158	-0.279891	1.01387	0.566532	0.105338	-0.167588	0.277746	-0.107077	0	0	0.309765	-0.219623	0.0626286	1.04531	-0.384794	0	0	0.254663	0.140516	-0.110817	-0.0787334	-0.225296	0.2821	0.443866	1.5708	0	0	-0.107643	-0.233764	0.223194	0.741693	1.47544	0	0
1.83	-2.70426	1.22763	1.25474	0.712922	-0.292605	1.01609	0.550146	0.106738	-0.169011	0.27481	-0.100177	0	0	0.331439	-0.213587	0.0695376	1.07578	-0.333192	0	0	0.252093	0.13511	-0.101857	-0.0769827	-0.225361	0.264586	0.453066	1.5708	0	0	-0.107928	-0.229906	0.222709	0.725086	1.4769	0	0
1.84	-2.71208	1.23111	1.26286	0.71169	-0.305382	1.01845	0.532892	0.107051	-0.170057	0.271237	-0.095419	0	0	0.352037	-0.206227	0.07242	1.10113	-0.287035	0	0	0.250175	0.127953	-0.0928485	-0.0756361	-0.225188	0.24782	0.462407	1.5708	0	0	-0.109616	-0.227932	0.223495	0.710318	1.47718	0	0
1.85	-2.72196	1.23648	1.27183	0.710494	-0.318138	1.021	0.513621	0.106544	-0.170351	0.2679	-0.0909451	0	0	0.369582	-0.198112	0.0710857	1.12077	-0.238299	0	0	0.245863	0.12001	-0.0817366	-0.075979	-0.224121	0.223135	0.4751	1.5708	0	0	-0.110985	-0.227285	0.225829	0.697323	1.47848	0	0
1.86	-2.73436	1.24297	1.28202	0.709328	-0.330868	1.02366	0.493029	0.105311	-0.169646	0.264271	-0.0875782	0	0	0.384902	-0.189566	0.0664477	1.13412	-0.199425	0	0	0.240514	0.111498	-0.0701221	-0.075632	-0.223271	0.201943	0.487643	1.5708	0	0	-0.113387	-0.227331	0.227364	0.68589	1.48151	0	0
1.87	-2.74944	1.2489	1.29443	0.708207	-0.343534	1.02628	0.472796	0.103467	-0.16864	0.259772	-0.0854851	0	0	0.400245	-0.181133	0.059825	1.14102	-0.171441	0	0	0.236423	0.102695	-0.0594354	-0.0744614	-0.222955	0.186187	0.499217	1.5708	0	0	-0.117633	-0.227657	0.227067	0.676232	1.48324	0	0
1.88	-2.76397	1.25584	1.30606	0.707175	-0.356028	1.02897	0.451189	0.101496	-0.168268	0.254185	-0.0839439	0	0	0.413683	-0.173457	0.0517851	1.14182	-0.138022	0	0	0.229299	0.0944863	-0.0461809	-0.0758442	-0.221882	0.160687	0.515475	1.5708	0	0	-0.11992	-0.227599	0.226875	0.66676	1.4854	0	0
1.89	-2.77911	1.26124	1.31893	0.706264	-0.368353	1.03151	0.431169	0.0993161	-0.169971	0.247855	-0.084258	0	0	0.428496	-0.166235	0.0444969	1.13689	-0.118541	0	0	0.224922	0.0865737	-0.0363842	-0.0750191	-0.222427	0.1462	0.529537	1.5708	0	0	-0.124647	-0.227292	0.223772	0.658136	1.48324	0	0
1.9	-2.79352	1.26621	1.33074	0.70542	-0.380574	1.03393	0.411444	0.0974364	-0.172681	0.24058	-0.0855084	0	0	0.442992	-0.16033	0.0358883	1.12684	-0.0998536	0	0	0.220387	0.0794364	-0.0264835	-0.0750568	-0.223247	0.131528	0.545413	1.5708	0	0	-0.129814	-0.226558	0.218973	0.650742	1.47864	0	0
1.91	-2.80649	1.27075	1.34101	0.704702	-0.392765	1.03624	0.391832	0.0958913	-0.175865	0.232728	-0.0876283	0	0	0.457037	-0.155812	0.0261412	1.11183	-0.0834283	0	0	0.216003	0.0732516	-0.0167326	-0.0757386	-0.224553	0.118035	0.562275	1.5708	0	0	-0.135238	-0.22516	0.212647	0.64368	1.47208	0	0
1.92	-2.81789	1.27542	1.34977	0.704075	-0.404849	1.03848	0.37182	0.0945004	-0.179595	0.224505	-0.0913839	0	0	0.469895	-0.152302	0.0154163	1.09171	-0.0682647	0	0	0.210639	0.0678631	-0.00643468	-0.0772575	-0.226067	0.103914	0.580622	1.5708	0	0	-0.139688	-0.223205	0.205798	0.636297	1.46368	0	0
1.93	-2.82825	1.27909	1.35787	0.703576	-0.416827	1.04053	0.352842	0.0931667	-0.184387	0.216583	-0.0953806	0	0	0.482852	-0.149552	0.00426923	1.06702	-0.0570208	0	0	0.20659	0.0631872	0.00249083	-0.0774914	-0.228892	0.0958369	0.597115	1.5708	0	0	-0.144441	-0.22123	0.199217	0.628765	1.45428	0	0
1.94	-2.83718	1.28232	1.36472	0.703189	-0.42873	1.0424	0.334307	0.0920465	-0.18957	0.208722	-0.0997423	0	0	0.495092	-0.147819	-0.0083981	1.0375	-0.0470526	0	0	0.202884	0.0592288	0.0105627	-0.0771464	-0.232601	0.0912408	0.613039	1.5708	0	0	-0.148968	-0.218902	0.192464	0.620716	1.44338	0	0
1.95	-2.8447	1.28517	1.37047	0.702913	-0.440564	1.04411	0.316166	0.0911845	-0.194207	0.201016	-0.104695	0	0	0.506655	-0.146898	-0.0225556	1.00284	-0.0397584	0	0	0.199385	0.0558566	0.0176266	-0.0764951	-0.236443	0.0880828	0.628484	1.5708	0	0	-0.152957	-0.216487	0.186461	0.611846	1.43161	0	0
1.96	-2.85176	1.28757	1.37556	0.702665	-0.452471	1.04564	0.298529	0.0905697	-0.199238	0.193478	-0.109845	0	0	0.516845	-0.14662	-0.0377157	0.96288	-0.036056	0	0	0.196626	0.0527544	0.0243172	-0.0758073	-0.240181	0.0860793	0.642996	1.5708	0	0	-0.156988	-0.214474	0.181791	0.602749	1.41965	0	0
1.97	-2.85789	1.29008	1.37915	0.702449	-0.464378	1.047	0.280934	0.0902472	-0.203216	0.186497	-0.115127	0	0	0.524951	-0.147126	-0.0547682	0.917802	-0.0359413	0	0	0.193603	0.0501056	0.0310441	-0.0739047	-0.244444	0.0863652	0.655647	1.5708	0	0	-0.160666	-0.212781	0.178737	0.59356	1.40758	0	0
1.98	-2.86421	1.29283	1.38239	0.702273	-0.476314	1.04818	0.263097	0.08986	-0.206261	0.179673	-0.12029	0	0	0.531064	-0.147917	-0.0736937	0.867901	-0.0398226	0	0	0.190454	0.0476297	0.0376389	-0.0713411	-0.248974	0.0884467	0.666965	1.5708	0	0	-0.163851	-0.211346	0.177498	0.583637	1.39486	0	0
1.99	-2.86953	1.29717	1.38394	0.702171	-0.488288	1.04928	0.243418	0.0894794	-0.207758	0.172829	-0.125161	0	0	0.533797	-0.14889	-0.0943753	0.813534	-0.0476656	0	0	0.18512	0.0453749	0.0441788	-0.0675312	-0.254269	0.0930482	0.677392	1.5708	0	0	-0.166132	-0.210552	0.179738	0.573393	1.37994	0	0
2	-2.87332	1.30154	1.38395	0.702148	-0.500349	1.05015	0.223582	0.0894432	-0.208473	0.166527	-0.128177	0	0	0.534703	-0.149627	-0.11452	0.75485	-0.0578077	0	0	0.179822	0.0436791	0.0498619	-0.0634772	-0.259419	0.0979764	0.687187	1.5708	0	0	-0.168768	-0.210074	0.18367	0.563718	1.3648	0	0
2.01	-2.87535	1.3059	1.38258	0.702194	-0.512487	1.0508	0.203484	0.0897129	-0.209194	0.160169	-0.13081	0	0	0.533634	-0.150051	-0.134802	0.691881	-0.0725724	0	0	0.174505	0.042467	0.0546957	-0.0593201	-0.264677	0.10365	0.696403	1.5708	0	0	-0.17093	-0.210464	0.192119	0.55389	1.34719	0	0
